<?xml version="1.0" encoding="UTF-8" standalone="no"?>
<svg
   width="3001"
   height="2602"
   viewBox="0 0 3001 2602"
   version="1.1"
   id="svg4"
   xmlns="http://www.w3.org/2000/svg"
   xmlns:svg="http://www.w3.org/2000/svg">
  <defs
     id="defs4" />
  <path
     fill-rule="evenodd"
     fill="#ff9dc3"
     fill-opacity="1"
     d="m 2446.2617,994.39844 z m -11.5234,86.57036 z M 2393,925.19141 Z m 2.6914,1.67968 c 24.0703,14.78907 42.75,38.36719 50.5977,67.51953 l 0.3828,1.59766 c 7.5273,29.79302 2.4375,60.07032 -11.8828,85.02342 l -1.7305,2.6602 c -14.7969,24.0664 -38.3672,42.75 -67.5469,50.5664 l -17.0234,4.5625 c -15.4688,4.1211 -31.3594,-5.0625 -35.4766,-20.5313 -4.1328,-15.4609 5.0586,-31.3476 20.5196,-35.4687 l 17.0195,-4.5625 c 14.2187,-3.8086 25.7109,-12.7891 32.9609,-24.3281 l 1.0196,-1.9219 h 0.078 c 6.9687,-12.0781 9.5,-26.7578 6,-41.2578 l -0.6992,-2.6289 c -3.9883,-13.63285 -12.7813,-24.65238 -23.9688,-31.67973 l -1.9297,-1.03125 v -0.0703 c -12.4531,-7.1914 -27.6601,-9.66015 -42.6015,-5.66015 l -17.0196,4.57031 c -15.4687,4.1289 -31.3593,-5.0586 -35.4804,-20.51953 -4.1289,-15.47266 5.0586,-31.35157 20.5195,-35.48047 l 17.0312,-4.57031 c 30.2891,-8.10938 61.1993,-3.08985 86.5704,11.48046 z M 319.37109,1534.3008 2096.0586,1058.2305 c 15.4609,-4.1289 31.3516,5.0586 35.4805,20.5195 4.1211,15.4688 -5.0586,31.3516 -20.5196,35.4805 L 334.36719,1590.2813 c 3.01953,44.7382 -12.27344,97.25 -38.20313,186.2226 -10.29687,35.3477 -22.4414,76.9922 -36.95312,130.7969 41.82422,112.9648 78.67968,145.9336 111.625,134.082 60.22265,-21.6523 126.38672,-155.5859 184.28515,-272.8242 21.40625,-43.332 41.75,-84.5156 61.49219,-118.9648 3.48828,-7.5625 10.17188,-13.5665 18.83594,-15.8907 l 7.51172,28.0313 -7.47657,-28.0039 748.05473,-200.4414 c 2.832,-0.918 5.8398,-1.4102 8.9726,-1.4102 16.0196,0 29.0196,12.9922 29.0196,29.0117 h -0.1094 V 1750.75 c 1.25,13.793 -7.5625,26.8984 -21.3906,30.6055 l -7.5118,-28.0274 7.4805,28 -76.6094,20.5274 c -13.3906,3.5859 -24.1093,12.3593 -30.5898,23.582 -6.461,11.1797 -8.6602,24.8398 -5.0703,38.2461 5.8711,21.9258 17.2578,31.293 30.789,33.9687 18,3.5743 41.5118,-1.1914 63.7696,-7.0859 2.6406,-0.8633 5.4492,-1.3555 8.3711,-1.4258 16.0195,-0.3711 29.3203,12.3125 29.6914,28.3282 l -29.0118,0.6796 28.8985,-0.5703 12.5898,540.6758 c 65.5821,175.5781 149.1133,72.0625 164.8828,50.0313 l 316.668,-1181.8438 c 2.2305,-10.3125 9.9922,-19.0312 20.8594,-21.9414 l 7.5117,28.0313 -7.4687,-28 c 513.539,-137.6016 827.8476,-273.4024 953.25,-373.01958 39.8789,-31.67188 57.6992,-55.42188 53.789,-70.0625 -3.9101,-14.57813 -31.1992,-26.21094 -81.5195,-33.6875 -158.332,-23.5625 -497.9922,15.8789 -1010.6524,153.14844 -10.0468,3.26953 -21.539,0.91796 -29.5273,-7.0586 l 0.01,-0.0117 -866.24999,-866.25 C 929.42578,96.300781 805.76562,48.839844 836.76172,233.53125 l 258.16798,472.20703 c 1.7187,2.57031 3.0508,5.47266 3.8984,8.62109 4.1407,15.48047 -5.039,31.39063 -20.5195,35.53907 l -7.5078,-28.02735 7.4805,28 c -22.793,6.10938 -46.3008,13.8086 -60.293,26.05078 -10.3867,9.10938 -15.5664,22.94922 -9.6797,44.96875 3.4414,12.82813 11.6406,23.21094 22.1914,29.75 l 1.3789,0.75 -0.027,0.0586 0.039,0.0195 -0.031,0.0508 c 11.1914,6.42969 24.8515,8.62109 38.2812,5.03125 l 75.1485,-20.14062 c 12.75,-4.14063 27.1015,1.03125 34.0703,13.10156 l -25.1289,14.50781 25.0508,-14.39844 144.8203,250.84772 c 1.9375,2.7421 3.4492,5.8593 4.3672,9.3007 4.1523,15.4805 -5.0391,31.3907 -20.5196,35.5391 l -7.5078,-28.0273 7.4805,28 -748.15237,200.457 c -7.52734,2.4219 -16.00391,1.7734 -23.38672,-2.4883 l 14.51172,-25.1289 -14.51172,25.0508 c -33.82812,-19.5235 -73.35156,-45.9102 -115.0039,-73.6914 -108.72657,-72.5508 -232.95313,-155.4297 -296.04297,-144.0586 -34.406252,6.1875 -49.816409,53.1562 -29.570315,171.8672 39.656245,39.5312 70.921875,69.4609 97.445315,94.8515 66.89843,64.0391 106.38672,101.8594 126.16015,142.1602 z m -45.53125,42.9492 -0.19531,-0.7187 h -0.004 l -0.0703,-0.2813 c -2.17187,-8 -5.63281,-15.9414 -10.5,-24.2109 9.16406,16.1914 13.4336,31.9492 13.67188,50.5078 0.043,-9.2188 -0.90235,-17.5352 -2.90235,-25.2969 z m 252.37891,371.4141 c 46.55859,-79.0313 88.57031,-173.25 125.34375,-242.6719 -13.99609,26.4023 -28.97266,56.7187 -44.52734,88.1875 -25.42969,51.4922 -52.33204,105.957 -80.81641,154.4844 z m 737.79295,-14.3516 c 12.0078,10.375 26.1797,16.7188 41.7071,19.9063 -15.4805,-3.2969 -29.668,-9.5586 -41.7071,-19.9063 z m 388.4688,593.5078 0.01,-0.027 -28,-7.4766 z M 2674.3516,1116.9609 c 186.2382,-82.2226 321.4687,-169.44137 326.1093,-248.35934 -2.1406,33.01953 -27.289,69.64844 -75.8906,108.25 -52.4492,41.66794 -135.6797,89.14844 -250.2187,140.10934 z m 326.25,-252.63278 c 0,-0.91796 -0.012,-1.83984 -0.043,-2.75781 0.031,0.91797 0.051,1.82813 0.043,2.75781 z m -11.3633,-37.85937 c -44.0195,-67.34766 -209.5,-74.50781 -416.9297,-51.17969 129.6328,-14.21094 228.8633,-15.00781 296.8828,-4.89062 61.5586,9.16015 101.7383,28.41015 120.0469,56.07031 z M 947.52734,799.39844 c -0.9414,18.22265 2.96094,36.73047 10.89453,53.4414 -2.46875,-5.39843 -4.52343,-11.07031 -6.10937,-16.98828 -3.5625,-13.29297 -5.05078,-25.40234 -4.78516,-36.45312 z m 39.36719,90.95312 c 4.66016,4 9.67969,7.58985 15.01567,10.73828 -0.3711,-0.21875 -0.711,-0.46093 -1.0508,-0.69922 -4.89456,-2.96875 -9.57034,-6.32031 -13.96487,-10.03906 z m 15.97657,11.3086 0.1094,-0.082 14.3984,-25.04687 z m 3.5273,1.80859 c 13.1524,7.05078 25.6914,10.69141 38.043,11.97266 -13.4023,-1.6211 -26.2812,-5.73047 -38.043,-11.97266 z m 78.5508,9.10937 c 17.4414,-3.60937 35.5,-9.50781 55.3906,-14.83984 l -55.2382,14.8125 -0.1524,0.0273"
     id="path1" />
  <path
     fill-rule="nonzero"
     fill="#250e1e"
     fill-opacity="1"
     d="M 10.984375,1284.9805 C -18.34375,1119.6016 16.976562,1051.9688 86.121094,1039.5 c 86.023436,-15.5117 220.617186,74.2891 338.429686,152.8984 36.28906,24.211 70.89453,47.3125 101.5,65.5821 l 701.48052,-187.9492 -116.211,-201.30083 -55.2422,14.80078 c -28.7383,7.69922 -58.05076,2.91797 -82.10935,-10.96094 l 14.39062,-25.05859 -14.5039,25.13672 c -0.69141,-0.39844 -1.36328,-0.82813 -2.00781,-1.26953 -23.08594,-13.98829 -41.04297,-36.52735 -48.54688,-64.55079 -12.82031,-47.83984 1.12891,-80.26953 27.59375,-103.44921 13.90234,-12.16016 30.85156,-20.85938 48.61328,-27.57813 l -244.96484,-448.0625 -0.0937,0.0625 c -1.83985,-3.37109 -2.94141,-6.92969 -3.35938,-10.51953 C 694.45703,-105.98047 954.78906,28.578125 955.53516,28.949219 l 0.0547,-0.109375 c 3.13282,1.570312 5.85938,3.621094 8.13672,6.03125 L 1820.8516,892 c 512.6875,-136.28125 855.957,-174.92188 1019.3203,-150.60938 75.4883,11.23047 118.8164,37.60938 129.1289,76.08985 10.289,38.44922 -14.0117,82.91015 -73.7422,130.34765 -129.3867,102.79298 -446.0273,240.99998 -958.1484,379.32028 l -313.9297,1171.6289 -28,-7.4765 28.0195,7.5117 c -1.1016,4.1211 -3.0391,7.793 -5.5781,10.8867 -17.2305,25.2969 -164.0821,227.4961 -270.1016,-64.9609 l -0.082,0.027 c -1.4102,-3.8945 -1.9297,-7.8867 -1.6797,-11.7695 l -11.8203,-507.9375 c -18.7774,3.0859 -37.8086,4.0586 -55.8399,0.4883 -34.5273,-6.8438 -62.8398,-27.9805 -75.6875,-75.9219 -7.7109,-28.7812 -2.9414,-58.1367 10.9688,-82.2266 13.8789,-24.0351 36.9219,-42.8398 65.7422,-50.5546 l 55.1797,-14.7852 -0.012,-232.4375 -701.53511,187.9805 c -16.91016,30.3828 -35.52344,68.0742 -55.03125,107.5625 -62.70703,126.9648 -134.36328,272.0117 -216.71094,301.6172 -66.40625,23.8867 -131.11719,-17.5821 -188.64063,-177.5235 l -0.11328,0.043 c -2.26953,-6.3008 -2.22265,-12.875 -0.29687,-18.7891 14.03125,-52.2929 27.76953,-99.4023 39.33984,-139.1172 28.58203,-98.082 42.8711,-147.1328 33.03125,-183.8828 -9.8164,-36.6406 -46.74219,-72 -120.5625,-142.6719 C 93.808594,1375.8711 57.882812,1341.4805 19.375,1302.9688 l 20.515625,-20.5196 -20.523437,20.5196 c -5.015626,-5.0196 -7.8125,-11.4297 -8.382813,-17.9883 z m 85.339844,-188.5821 c -34.410157,6.2032 -49.820313,53.1602 -29.570313,171.8829 39.652344,39.5273 70.921874,69.4492 97.441404,94.8398 81.6211,78.1484 122.45313,117.2383 136.4375,169.4297 13.96094,52.1211 -1.85156,106.3984 -33.48437,214.9375 -10.29688,35.3476 -22.44141,76.9961 -36.95313,130.7969 41.82422,112.9648 78.6836,145.9375 111.625,134.0859 60.22266,-21.6523 126.38672,-155.5898 184.28516,-272.8281 21.41015,-43.3321 41.75,-84.5157 61.49219,-118.9649 3.48828,-7.5586 10.17187,-13.5625 18.83593,-15.8867 l 7.51172,28.0274 -7.47656,-28 748.06255,-200.4493 c 2.8203,-0.9101 5.8281,-1.4101 8.9687,-1.4101 16.0117,0 29.0117,13 29.0117,29.0195 h -0.1133 l 0.012,289.8555 c 1.25,13.7929 -7.5586,26.8984 -21.3985,30.6054 l -7.5117,-28.0273 7.4805,28 -76.6016,20.5313 c -13.3906,3.5859 -24.1172,12.3554 -30.5976,23.5781 -6.4532,11.1797 -8.6602,24.8398 -5.0704,38.25 5.8789,21.9258 17.2696,31.289 30.7891,33.9687 18.0117,3.5703 41.5117,-1.1953 63.7813,-7.0898 2.6289,-0.8633 5.4492,-1.3555 8.3593,-1.4219 16.0196,-0.3711 29.3203,12.3086 29.6875,28.3281 l -29.0078,0.6758 28.9102,-0.5664 12.5781,540.6758 c 65.5898,175.5742 149.1133,72.0586 164.8906,50.0273 l 316.6719,-1181.8476 c 2.2305,-10.3008 9.9883,-19.0235 20.8594,-21.9336 l 7.5078,28.0234 -7.4766,-28 c 513.5469,-137.5898 827.8594,-273.4023 953.2578,-373.0117 39.8789,-31.67969 57.6993,-55.42969 53.7813,-70.05859 -3.9024,-14.58204 -31.1914,-26.21094 -81.5195,-33.70313 -158.3321,-23.55859 -497.9805,15.88281 -1010.6407,153.16016 -10.0625,3.27343 -21.5508,0.92187 -29.5312,-7.07032 v -0.008 L 925.36328,78.570312 c -24.95312,-11.28125 -148.60937,-58.75 -117.61719,125.941408 l 258.17581,472.21875 c 1.7187,2.57031 3.0469,5.46094 3.8867,8.60937 4.1523,15.48047 -5.0391,31.39844 -20.5078,35.53907 l -7.5195,-28.01954 7.4804,28 c -22.7929,6.10157 -46.293,13.80079 -60.28514,26.05079 -10.39062,9.10156 -15.57031,22.94921 -9.67578,44.96093 3.43359,12.83985 11.63281,23.20703 22.18752,29.75782 l 1.3828,0.75 -0.043,0.0625 0.043,0.0195 -0.031,0.0508 c 11.1914,6.42969 24.8594,8.60937 38.2891,5.01953 l 75.1524,-20.14063 c 12.75,-4.14062 27.0898,1.03125 34.0585,13.09766 L 1125.2188,835 l 25.0507,-14.39063 144.8086,250.83983 c 1.9532,2.7422 3.461,5.8711 4.3711,9.3008 4.1524,15.4805 -5.0273,31.3984 -20.5078,35.5391 l -7.5117,-28.0196 7.4805,28 -748.15629,200.461 c -7.52735,2.4179 -16.00391,1.7695 -23.38672,-2.4922 l 14.51172,-25.1289 -14.51172,25.0508 C 473.53906,1294.6289 434.01953,1268.25 392.36328,1240.4609 283.64062,1167.9102 159.41016,1085.0313 96.324219,1096.3984"
     id="path2" />
  <path
     fill-rule="nonzero"
     fill="#250e1e"
     fill-opacity="1"
     d="m 2260.4102,889.21094 c -15.461,4.1289 -24.6407,20.01953 -20.5196,35.48047 4.1289,15.46875 20.0196,24.64843 35.4805,20.51953 l 17.0273,-4.5625 c 14.9297,-4 30.1524,-1.53907 42.6016,5.65234 L 2349.5117,921.25 2335,946.37891 c 0.6289,0.37109 1.2695,0.71093 1.9219,1.01953 11.1992,7.03125 19.9765,18.0625 23.9687,31.6914 0.1992,0.89063 0.4297,1.76172 0.6992,2.6211 3.5,14.50781 0.9805,29.17966 -6,41.25776 l 25.0586,14.5118 -25.1289,-14.5118 c -0.3711,0.6407 -0.7109,1.2813 -1.0195,1.9297 -7.25,11.543 -18.7383,20.5235 -32.9609,24.3204 l -17.0196,4.5625 c -15.4687,4.1289 -24.6484,20.0195 -20.5312,35.4804 4.1328,15.4571 20.0234,24.6485 35.4805,20.5196 l 17.0195,-4.5625 c 29.1836,-7.8086 52.7617,-26.5 67.5508,-50.5704 0.6211,-0.8398 1.1992,-1.7265 1.7422,-2.6601 l -0.062,-0.027 c 14.371,-24.9101 19.4726,-55.19137 11.9296,-84.98043 l -0.3671,-1.60156 -0.043,0.0117 c -7.8086,-29.17187 -26.5,-52.74218 -50.5586,-67.53125 -0.8399,-0.62109 -1.7383,-1.19921 -2.6602,-1.73828 l -0.039,0.0586 c -25.3399,-14.62891 -56.2422,-19.64844 -86.5391,-11.53125 l -17.0312,4.5625"
     id="path3" />
  <path
     fill-rule="nonzero"
     fill="#250e1e"
     fill-opacity="1"
     d="m 265.14453,1512.0313 c -15.46094,4.1289 -24.64844,20.0195 -20.51953,35.4804 4.125,15.4571 20.01562,24.6485 35.47656,20.5196 L 2082,1085.2188 c 15.4609,-4.129 24.6484,-20.0196 20.5195,-35.4805 -4.1211,-15.4688 -20.0078,-24.6485 -35.4804,-20.5195 L 265.14453,1512.0313"
     id="path4" />
</svg>
