<svg xmlns="http://www.w3.org/2000/svg" width="16" height="16" viewBox="0 0 16 16">
  <defs>
    <style>
      .cls-1 {
        fill: #7d31c4;
        fill-rule: evenodd;
      }
    </style>
  </defs>
  <path class="cls-1" d="M0,32A16,16,0,0,1-16,16,16,16,0,0,1,0,0,16,16,0,0,1,16,16,16,16,0,0,1,0,32ZM0,3A13,13,0,0,0,0,29,13,13,0,0,0,13,16,13,13,0,0,0,0,3ZM0,27A11,11,0,0,1-11,16,11,11,0,0,1,0,5,11,11,0,0,1,11,16,11,11,0,0,1,0,27ZM0,8a8,8,0,0,0-8,8,8,8,0,0,0,8,8A8,8,0,0,0,0,8Zm2.5,8A2.5,2.5,0,1,1,5,13.5,2.5,2.5,0,0,1,2.5,16Z"/>
</svg>
